<mxfile host="app.diagrams.net" agent="Mozilla/5.0 (Windows NT 10.0; Win64; x64) AppleWebKit/537.36 (KHTML, like Gecko) Chrome/129.0.0.0 Safari/537.36" version="24.7.17">
  <diagram name="Halaman-1" id="oRl_ViCk-AsLNKTNDdXx">
    <mxGraphModel dx="530" dy="386" grid="1" gridSize="10" guides="1" tooltips="1" connect="1" arrows="1" fold="1" page="1" pageScale="1" pageWidth="850" pageHeight="1100" math="0" shadow="0">
      <root>
        <mxCell id="0" />
        <mxCell id="1" parent="0" />
        <mxCell id="XepmCDhu73pbpkh5oP49-1" value="&lt;span style=&quot;font-size: 36px;&quot;&gt;&lt;b&gt;USER&lt;/b&gt;&lt;/span&gt;" style="rounded=0;whiteSpace=wrap;html=1;fillColor=#1ba1e2;strokeColor=#006EAF;fontColor=#ffffff;" vertex="1" parent="1">
          <mxGeometry x="200" y="250" width="120" height="60" as="geometry" />
        </mxCell>
        <mxCell id="XepmCDhu73pbpkh5oP49-2" value="&lt;font style=&quot;font-size: 18px;&quot;&gt;id_user&lt;/font&gt;" style="ellipse;whiteSpace=wrap;html=1;aspect=fixed;fillColor=#dae8fc;strokeColor=#6c8ebf;" vertex="1" parent="1">
          <mxGeometry x="210" y="50" width="80" height="80" as="geometry" />
        </mxCell>
        <mxCell id="XepmCDhu73pbpkh5oP49-3" value="&lt;font style=&quot;font-size: 18px;&quot;&gt;nama&lt;/font&gt;" style="ellipse;whiteSpace=wrap;html=1;aspect=fixed;fillColor=#dae8fc;strokeColor=#6c8ebf;" vertex="1" parent="1">
          <mxGeometry x="250" y="130" width="80" height="80" as="geometry" />
        </mxCell>
        <mxCell id="XepmCDhu73pbpkh5oP49-4" value="&lt;font style=&quot;font-size: 18px;&quot;&gt;email&lt;/font&gt;" style="ellipse;whiteSpace=wrap;html=1;aspect=fixed;fillColor=#dae8fc;strokeColor=#6c8ebf;" vertex="1" parent="1">
          <mxGeometry x="150" y="140" width="80" height="80" as="geometry" />
        </mxCell>
        <mxCell id="XepmCDhu73pbpkh5oP49-5" value="&lt;font style=&quot;font-size: 18px;&quot;&gt;no telp&lt;/font&gt;" style="ellipse;whiteSpace=wrap;html=1;aspect=fixed;fillColor=#dae8fc;strokeColor=#6c8ebf;" vertex="1" parent="1">
          <mxGeometry x="50" y="140" width="80" height="80" as="geometry" />
        </mxCell>
        <mxCell id="XepmCDhu73pbpkh5oP49-6" value="&lt;font style=&quot;font-size: 18px;&quot;&gt;password&lt;/font&gt;" style="ellipse;whiteSpace=wrap;html=1;aspect=fixed;fillColor=#dae8fc;strokeColor=#6c8ebf;" vertex="1" parent="1">
          <mxGeometry x="340" y="90" width="80" height="80" as="geometry" />
        </mxCell>
        <mxCell id="XepmCDhu73pbpkh5oP49-7" value="&lt;font style=&quot;font-size: 18px;&quot;&gt;photo&lt;/font&gt; &lt;font style=&quot;font-size: 18px;&quot;&gt;profil&lt;/font&gt;" style="ellipse;whiteSpace=wrap;html=1;aspect=fixed;fillColor=#dae8fc;strokeColor=#6c8ebf;" vertex="1" parent="1">
          <mxGeometry x="80" y="250" width="80" height="80" as="geometry" />
        </mxCell>
        <mxCell id="XepmCDhu73pbpkh5oP49-8" value="&lt;font style=&quot;font-size: 27px;&quot;&gt;&lt;b&gt;komentar&lt;/b&gt;&lt;/font&gt;" style="rounded=0;whiteSpace=wrap;html=1;fillColor=#76608a;fontColor=#ffffff;strokeColor=#432D57;" vertex="1" parent="1">
          <mxGeometry x="740" y="250" width="120" height="60" as="geometry" />
        </mxCell>
        <mxCell id="XepmCDhu73pbpkh5oP49-9" value="&lt;font style=&quot;font-size: 18px;&quot;&gt;id_user&lt;/font&gt;" style="ellipse;whiteSpace=wrap;html=1;aspect=fixed;fillColor=#d0cee2;strokeColor=#56517e;" vertex="1" parent="1">
          <mxGeometry x="710" y="130" width="80" height="80" as="geometry" />
        </mxCell>
        <mxCell id="XepmCDhu73pbpkh5oP49-10" value="&lt;font style=&quot;font-size: 17px;&quot;&gt;Id_komentar&lt;/font&gt;" style="ellipse;whiteSpace=wrap;html=1;aspect=fixed;fillColor=#d0cee2;strokeColor=#56517e;" vertex="1" parent="1">
          <mxGeometry x="830" y="120" width="100" height="100" as="geometry" />
        </mxCell>
        <mxCell id="XepmCDhu73pbpkh5oP49-11" value="&lt;font style=&quot;font-size: 36px;&quot;&gt;rating&lt;/font&gt;" style="rounded=0;whiteSpace=wrap;html=1;fillColor=#a0522d;fontColor=#ffffff;strokeColor=#6D1F00;" vertex="1" parent="1">
          <mxGeometry x="1010" y="430" width="120" height="60" as="geometry" />
        </mxCell>
        <mxCell id="XepmCDhu73pbpkh5oP49-12" value="&lt;font style=&quot;font-size: 18px;&quot;&gt;Id_rating&lt;/font&gt;" style="ellipse;whiteSpace=wrap;html=1;aspect=fixed;" vertex="1" parent="1">
          <mxGeometry x="1080" y="270" width="80" height="80" as="geometry" />
        </mxCell>
        <mxCell id="XepmCDhu73pbpkh5oP49-13" value="&lt;font style=&quot;font-size: 18px;&quot;&gt;id_user&lt;/font&gt;" style="ellipse;whiteSpace=wrap;html=1;aspect=fixed;" vertex="1" parent="1">
          <mxGeometry x="1210" y="330" width="80" height="80" as="geometry" />
        </mxCell>
        <mxCell id="XepmCDhu73pbpkh5oP49-14" value="&lt;font style=&quot;font-size: 18px;&quot;&gt;id_ruangan&lt;/font&gt;" style="ellipse;whiteSpace=wrap;html=1;aspect=fixed;" vertex="1" parent="1">
          <mxGeometry x="1160" y="190" width="120" height="120" as="geometry" />
        </mxCell>
        <mxCell id="XepmCDhu73pbpkh5oP49-15" value="&lt;font style=&quot;font-size: 18px;&quot;&gt;id_checkout&lt;/font&gt;" style="ellipse;whiteSpace=wrap;html=1;aspect=fixed;" vertex="1" parent="1">
          <mxGeometry x="1300" y="220" width="120" height="120" as="geometry" />
        </mxCell>
        <mxCell id="XepmCDhu73pbpkh5oP49-16" value="&lt;font style=&quot;font-size: 36px;&quot;&gt;&lt;b&gt;Umpan balik&lt;/b&gt;&lt;/font&gt;" style="rounded=0;whiteSpace=wrap;html=1;" vertex="1" parent="1">
          <mxGeometry x="1100" y="650" width="180" height="100" as="geometry" />
        </mxCell>
        <mxCell id="XepmCDhu73pbpkh5oP49-17" value="&lt;font style=&quot;font-size: 18px;&quot;&gt;id_rating&lt;/font&gt;" style="ellipse;whiteSpace=wrap;html=1;aspect=fixed;" vertex="1" parent="1">
          <mxGeometry x="1270" y="520" width="80" height="80" as="geometry" />
        </mxCell>
        <mxCell id="XepmCDhu73pbpkh5oP49-18" value="&lt;font style=&quot;font-size: 18px;&quot;&gt;id_komentar&lt;/font&gt;" style="ellipse;whiteSpace=wrap;html=1;aspect=fixed;" vertex="1" parent="1">
          <mxGeometry x="1330" y="620" width="120" height="120" as="geometry" />
        </mxCell>
        <mxCell id="XepmCDhu73pbpkh5oP49-19" value="&lt;b&gt;&lt;font style=&quot;font-size: 36px;&quot;&gt;Checkout&lt;/font&gt;&lt;/b&gt;" style="rounded=0;whiteSpace=wrap;html=1;" vertex="1" parent="1">
          <mxGeometry x="820" y="910" width="200" height="110" as="geometry" />
        </mxCell>
        <mxCell id="XepmCDhu73pbpkh5oP49-20" value="id_user" style="ellipse;whiteSpace=wrap;html=1;aspect=fixed;" vertex="1" parent="1">
          <mxGeometry x="770" y="770" width="80" height="80" as="geometry" />
        </mxCell>
        <mxCell id="XepmCDhu73pbpkh5oP49-21" value="id_ruangan" style="ellipse;whiteSpace=wrap;html=1;aspect=fixed;" vertex="1" parent="1">
          <mxGeometry x="710" y="910" width="80" height="80" as="geometry" />
        </mxCell>
        <mxCell id="XepmCDhu73pbpkh5oP49-22" value="nama acara" style="ellipse;whiteSpace=wrap;html=1;aspect=fixed;" vertex="1" parent="1">
          <mxGeometry x="710" y="1040" width="80" height="80" as="geometry" />
        </mxCell>
        <mxCell id="XepmCDhu73pbpkh5oP49-23" value="status pembayaran" style="ellipse;whiteSpace=wrap;html=1;aspect=fixed;" vertex="1" parent="1">
          <mxGeometry x="850" y="1070" width="80" height="80" as="geometry" />
        </mxCell>
        <mxCell id="XepmCDhu73pbpkh5oP49-24" value="total harga" style="ellipse;whiteSpace=wrap;html=1;aspect=fixed;" vertex="1" parent="1">
          <mxGeometry x="970" y="1080" width="80" height="80" as="geometry" />
        </mxCell>
        <mxCell id="XepmCDhu73pbpkh5oP49-25" value="selesai booking" style="ellipse;whiteSpace=wrap;html=1;aspect=fixed;" vertex="1" parent="1">
          <mxGeometry x="720" y="1160" width="80" height="80" as="geometry" />
        </mxCell>
        <mxCell id="XepmCDhu73pbpkh5oP49-26" value="tanggal booking" style="ellipse;whiteSpace=wrap;html=1;aspect=fixed;" vertex="1" parent="1">
          <mxGeometry x="840" y="1170" width="80" height="80" as="geometry" />
        </mxCell>
        <mxCell id="XepmCDhu73pbpkh5oP49-27" value="durasi sewa" style="ellipse;whiteSpace=wrap;html=1;aspect=fixed;" vertex="1" parent="1">
          <mxGeometry x="960" y="1170" width="80" height="80" as="geometry" />
        </mxCell>
      </root>
    </mxGraphModel>
  </diagram>
</mxfile>
